<svg width="36" height="36" viewBox="0 0 36 36" fill="none" xmlns="http://www.w3.org/2000/svg">
<path d="M12 18L12 12C12 8.68629 14.6863 6 18 6C21.3137 6 24 8.68629 24 12L24 18" stroke="black" stroke-width="1.5" stroke-linecap="round"/>
<path d="M5.54152 19.0017C5.75913 16.3904 5.86794 15.0847 6.72907 14.2924C7.5902 13.5 8.9004 13.5 11.5208 13.5H24.4792C27.0996 13.5 28.4098 13.5 29.2709 14.2924C30.1321 15.0847 30.2409 16.3904 30.4585 19.0017L31.2292 28.2509C31.3559 29.7712 31.4193 30.5313 30.9736 31.0157C30.528 31.5 29.7652 31.5 28.2396 31.5H7.7604C6.23482 31.5 5.47203 31.5 5.02638 31.0157C4.58072 30.5313 4.64407 29.7712 4.77076 28.2509L5.54152 19.0017Z" stroke="black" stroke-width="1.5"/>
</svg>
