<svg width="48" height="48" viewBox="0 0 48 48" fill="none" xmlns="http://www.w3.org/2000/svg">
<path d="M16 24L16 16C16 11.5817 19.5817 8 24 8C28.4183 8 32 11.5817 32 16L32 24" stroke="white" stroke-width="2" stroke-linecap="round"/>
<path d="M7.3887 25.3356C7.67885 21.8538 7.82392 20.1129 8.97209 19.0565C10.1203 18 11.8672 18 15.3611 18H32.6389C36.1328 18 37.8797 18 39.0279 19.0565C40.1761 20.1129 40.3212 21.8538 40.6113 25.3356L41.639 37.6678C41.8079 39.6949 41.8924 40.7084 41.2982 41.3542C40.704 42 39.6869 42 37.6528 42H10.3472C8.31309 42 7.29604 42 6.70183 41.3542C6.10763 40.7084 6.19209 39.6949 6.36102 37.6678L7.3887 25.3356Z" stroke="white" stroke-width="2"/>
</svg>
