<svg width="48" height="48" viewBox="0 0 48 48" fill="none" xmlns="http://www.w3.org/2000/svg">
<path d="M17.0624 24.5707L23.2584 30.4808C23.4782 30.6905 23.5881 30.7953 23.7184 30.8201C23.7741 30.8308 23.8314 30.8308 23.8871 30.8201C24.0174 30.7953 24.1273 30.6905 24.347 30.4808L30.5431 24.5707C32.2559 22.937 32.4646 20.276 31.0275 18.3952L30.7169 17.9887C28.9799 15.7154 25.4513 16.0928 24.2342 18.682C24.0625 19.0473 23.5429 19.0473 23.3712 18.682C22.1542 16.0928 18.6256 15.7154 16.8885 17.9887L16.578 18.3952C15.1409 20.276 15.3496 22.937 17.0624 24.5707Z" stroke="#222222" stroke-width="0.9"/>
</svg>
