<svg width="300" height="48" viewBox="0 0 300 48" fill="none" xmlns="http://www.w3.org/2000/svg">
<path d="M19.0772 30.4591C15.8799 30.4591 13.1699 29.3484 10.9472 27.1271C8.7259 24.9071 7.61523 22.1977 7.61523 18.9991C7.61523 15.8004 8.7259 13.0904 10.9472 10.8691C13.1686 8.64773 15.8786 7.53773 19.0772 7.53906C22.2759 7.5404 24.9852 8.65106 27.2052 10.8711C29.4252 13.0911 30.5359 15.8004 30.5372 18.9991C30.5372 20.3884 30.2912 21.7331 29.7992 23.0331C29.3072 24.3331 28.6606 25.4451 27.8592 26.3691L39.6772 38.1831C39.8639 38.3697 39.9639 38.5997 39.9772 38.8731C39.9892 39.1437 39.8892 39.3857 39.6772 39.5991C39.4639 39.8124 39.2279 39.9191 38.9692 39.9191C38.7106 39.9191 38.4746 39.8124 38.2612 39.5991L26.4452 27.7831C25.4452 28.6351 24.2952 29.2944 22.9952 29.7611C21.6952 30.2277 20.3886 30.4611 19.0752 30.4611M19.0752 28.4611C21.7286 28.4611 23.9692 27.5477 25.7972 25.7211C27.6239 23.8944 28.5372 21.6537 28.5372 18.9991C28.5372 16.3444 27.6246 14.1044 25.7992 12.2791C23.9739 10.4537 21.7339 9.5404 19.0792 9.53906C16.4246 9.53906 14.1839 10.4524 12.3572 12.2791C10.5306 14.1057 9.61657 16.3457 9.61523 18.9991C9.6139 21.6524 10.5272 23.8924 12.3552 25.7191C14.1832 27.5457 16.4232 28.4591 19.0752 28.4591" fill="black"/>
<path fill-rule="evenodd" clip-rule="evenodd" d="M122.569 25.2905C123.984 23.8541 124.769 21.9148 124.753 19.8991C124.738 17.8835 123.922 15.9566 122.485 14.5425C121.774 13.8423 120.932 13.289 120.007 12.9143C119.082 12.5396 118.092 12.3507 117.094 12.3585C115.078 12.3743 113.152 13.1901 111.737 14.6265C111.353 15.0105 110.865 15.4818 110.273 16.0405L108.627 17.5905L106.981 16.0405C106.388 15.4805 105.899 15.0092 105.515 14.6265C104.09 13.2012 102.157 12.4005 100.141 12.4005C98.1257 12.4005 96.1927 13.2012 94.7674 14.6265C91.8314 17.5645 91.7974 22.3145 94.6594 25.2665L108.627 39.2345L122.569 25.2905ZM93.0694 12.9305C93.998 12.0016 95.1005 11.2648 96.3139 10.7621C97.5274 10.2594 98.8279 10.0006 100.141 10.0006C101.455 10.0006 102.755 10.2594 103.969 10.7621C105.182 11.2648 106.285 12.0016 107.213 12.9305C107.577 13.2958 108.049 13.7505 108.627 14.2945C109.203 13.7505 109.675 13.2952 110.041 12.9285C111.902 11.0388 114.438 9.96586 117.09 9.9456C119.742 9.92535 122.294 10.9595 124.183 12.8205C126.073 14.6815 127.146 17.217 127.166 19.8691C127.187 22.5213 126.152 25.0728 124.291 26.9625L110.041 41.2145C109.666 41.5895 109.158 41.8001 108.627 41.8001C108.097 41.8001 107.588 41.5895 107.213 41.2145L92.9594 26.9605C91.1315 25.0753 90.1184 22.5468 90.139 19.921C90.1596 17.2952 91.2121 14.7828 93.0694 12.9265V12.9305Z" fill="black"/>
<path d="M207.455 40.894C206.545 38.342 204.535 36.088 201.741 34.48C198.947 32.872 195.523 32 192.001 32C188.479 32 185.055 32.872 182.261 34.48C179.467 36.088 177.457 38.342 176.547 40.894" stroke="black" stroke-width="2" stroke-linecap="round"/>
<path d="M192 24C196.418 24 200 20.4183 200 16C200 11.5817 196.418 8 192 8C187.582 8 184 11.5817 184 16C184 20.4183 187.582 24 192 24Z" stroke="black" stroke-width="2" stroke-linecap="round"/>
<path d="M280.001 10C280.001 8.93913 279.579 7.92172 278.829 7.17157C278.079 6.42143 277.062 6 276.001 6C274.94 6 273.922 6.42143 273.172 7.17157C272.422 7.92172 272.001 8.93913 272.001 10M290.521 19.392L293.291 37.392C293.378 37.9617 293.342 38.5436 293.183 39.0979C293.025 39.6521 292.749 40.1657 292.374 40.6033C291.999 41.0409 291.534 41.3923 291.01 41.6333C290.487 41.8744 289.917 41.9995 289.341 42H262.661C262.084 42.0001 261.514 41.8754 260.99 41.6346C260.466 41.3938 260 41.0425 259.625 40.6048C259.249 40.1671 258.972 39.6534 258.814 39.0988C258.656 38.5443 258.619 37.962 258.707 37.392L261.477 19.392C261.622 18.4472 262.101 17.5856 262.826 16.9634C263.552 16.3412 264.477 15.9994 265.433 16H286.569C287.524 15.9999 288.448 16.3419 289.174 16.9641C289.899 17.5862 290.375 18.4475 290.521 19.392Z" stroke="black" stroke-width="3" stroke-linecap="round" stroke-linejoin="round"/>
</svg>
