<svg width="19" height="19" viewBox="0 0 19 19" fill="none" xmlns="http://www.w3.org/2000/svg">
<path d="M9.171 10.233L1.302 18.102C1.162 18.242 0.99 18.317 0.786 18.327C0.582 18.337 0.4 18.262 0.24 18.102C0.0799998 17.942 0 17.765 0 17.571C0 17.377 0.0799998 17.2 0.24 17.04L8.109 9.171L0.24 1.302C0.0999998 1.162 0.0249996 0.99 0.0149996 0.786C0.00499963 0.582 0.0799998 0.4 0.24 0.24C0.4 0.0799998 0.577 0 0.771 0C0.965 0 1.142 0.0799998 1.302 0.24L9.171 8.109L17.04 0.24C17.18 0.0999998 17.3525 0.0249996 17.5575 0.0149996C17.7605 0.00499963 17.942 0.0799998 18.102 0.24C18.262 0.4 18.342 0.577 18.342 0.771C18.342 0.965 18.262 1.142 18.102 1.302L10.233 9.171L18.102 17.04C18.242 17.18 18.317 17.3525 18.327 17.5575C18.337 17.7605 18.262 17.942 18.102 18.102C17.942 18.262 17.765 18.342 17.571 18.342C17.377 18.342 17.2 18.262 17.04 18.102L9.171 10.233Z" fill="white"/>
</svg>
