<svg width="32" height="24" viewBox="0 0 32 24" fill="none" xmlns="http://www.w3.org/2000/svg">
<path d="M32 11.8261C32 12.0106 31.9267 12.1875 31.7962 12.318C31.6658 12.4484 31.4888 12.5217 31.3043 12.5217H0.695652C0.511154 12.5217 0.334212 12.4484 0.203752 12.318C0.0732918 12.1875 0 12.0106 0 11.8261C0 11.6416 0.0732918 11.4646 0.203752 11.3342C0.334212 11.2037 0.511154 11.1304 0.695652 11.1304H31.3043C31.4888 11.1304 31.6658 11.2037 31.7962 11.3342C31.9267 11.4646 32 11.6416 32 11.8261ZM0.695652 1.3913H31.3043C31.4888 1.3913 31.6658 1.31801 31.7962 1.18755C31.9267 1.05709 32 0.880151 32 0.695652C32 0.511154 31.9267 0.334212 31.7962 0.203752C31.6658 0.0732918 31.4888 0 31.3043 0H0.695652C0.511154 0 0.334212 0.0732918 0.203752 0.203752C0.0732918 0.334212 0 0.511154 0 0.695652C0 0.880151 0.0732918 1.05709 0.203752 1.18755C0.334212 1.31801 0.511154 1.3913 0.695652 1.3913ZM31.3043 22.2609H0.695652C0.511154 22.2609 0.334212 22.3342 0.203752 22.4646C0.0732918 22.5951 0 22.772 0 22.9565C0 23.141 0.0732918 23.318 0.203752 23.4484C0.334212 23.5789 0.511154 23.6522 0.695652 23.6522H31.3043C31.4888 23.6522 31.6658 23.5789 31.7962 23.4484C31.9267 23.318 32 23.141 32 22.9565C32 22.772 31.9267 22.5951 31.7962 22.4646C31.6658 22.3342 31.4888 22.2609 31.3043 22.2609Z" fill="white"/>
</svg>
