<svg width="24" height="18" viewBox="0 0 24 18" fill="none" xmlns="http://www.w3.org/2000/svg">
<path d="M24 8.86957C24 9.00794 23.945 9.14065 23.8472 9.23849C23.7493 9.33634 23.6166 9.3913 23.4783 9.3913H0.521739C0.383365 9.3913 0.250659 9.33634 0.152814 9.23849C0.0549689 9.14065 0 9.00794 0 8.86957C0 8.73119 0.0549689 8.59848 0.152814 8.50064C0.250659 8.40279 0.383365 8.34783 0.521739 8.34783H23.4783C23.6166 8.34783 23.7493 8.40279 23.8472 8.50064C23.945 8.59848 24 8.73119 24 8.86957ZM0.521739 1.04348H23.4783C23.6166 1.04348 23.7493 0.98851 23.8472 0.890665C23.945 0.79282 24 0.660113 24 0.521739C24 0.383365 23.945 0.250659 23.8472 0.152814C23.7493 0.0549689 23.6166 0 23.4783 0H0.521739C0.383365 0 0.250659 0.0549689 0.152814 0.152814C0.0549689 0.250659 0 0.383365 0 0.521739C0 0.660113 0.0549689 0.79282 0.152814 0.890665C0.250659 0.98851 0.383365 1.04348 0.521739 1.04348ZM23.4783 16.6957H0.521739C0.383365 16.6957 0.250659 16.7506 0.152814 16.8485C0.0549689 16.9463 0 17.079 0 17.2174C0 17.3558 0.0549689 17.4885 0.152814 17.5863C0.250659 17.6842 0.383365 17.7391 0.521739 17.7391H23.4783C23.6166 17.7391 23.7493 17.6842 23.8472 17.5863C23.945 17.4885 24 17.3558 24 17.2174C24 17.079 23.945 16.9463 23.8472 16.8485C23.7493 16.7506 23.6166 16.6957 23.4783 16.6957Z" fill="white"/>
</svg>
