<svg width="35" height="26" viewBox="0 0 35 26" fill="none" xmlns="http://www.w3.org/2000/svg">
<path d="M34.5 12.75C34.5 12.9489 34.421 13.1397 34.2803 13.2803C34.1397 13.421 33.9489 13.5 33.75 13.5H0.75C0.551088 13.5 0.360322 13.421 0.21967 13.2803C0.0790178 13.1397 0 12.9489 0 12.75C0 12.5511 0.0790178 12.3603 0.21967 12.2197C0.360322 12.079 0.551088 12 0.75 12H33.75C33.9489 12 34.1397 12.079 34.2803 12.2197C34.421 12.3603 34.5 12.5511 34.5 12.75ZM0.75 1.5H33.75C33.9489 1.5 34.1397 1.42098 34.2803 1.28033C34.421 1.13968 34.5 0.948912 34.5 0.75C34.5 0.551088 34.421 0.360322 34.2803 0.21967C34.1397 0.0790178 33.9489 0 33.75 0H0.75C0.551088 0 0.360322 0.0790178 0.21967 0.21967C0.0790178 0.360322 0 0.551088 0 0.75C0 0.948912 0.0790178 1.13968 0.21967 1.28033C0.360322 1.42098 0.551088 1.5 0.75 1.5ZM33.75 24H0.75C0.551088 24 0.360322 24.079 0.21967 24.2197C0.0790178 24.3603 0 24.5511 0 24.75C0 24.9489 0.0790178 25.1397 0.21967 25.2803C0.360322 25.421 0.551088 25.5 0.75 25.5H33.75C33.9489 25.5 34.1397 25.421 34.2803 25.2803C34.421 25.1397 34.5 24.9489 34.5 24.75C34.5 24.5511 34.421 24.3603 34.2803 24.2197C34.1397 24.079 33.9489 24 33.75 24Z" fill="black"/>
</svg>
