<svg width="23" height="23" viewBox="0 0 23 23" fill="none" xmlns="http://www.w3.org/2000/svg">
<path d="M7.96464 15.9265C5.7429 15.9265 3.85979 15.1547 2.31532 13.6112C0.771773 12.0686 0 10.1859 0 7.96325C0 5.74058 0.771773 3.85747 2.31532 2.31393C3.85886 0.770384 5.74197 -0.000925664 7.96464 8.33681e-07C10.1873 0.000927331 12.07 0.7727 13.6126 2.31532C15.1552 3.85794 15.927 5.74058 15.9279 7.96325C15.9279 8.92866 15.7569 9.86303 15.4151 10.7664C15.0732 11.6697 14.6238 12.4424 14.067 13.0845L22.279 21.2937C22.4087 21.4234 22.4782 21.5832 22.4875 21.7732C22.4958 21.9612 22.4263 22.1294 22.279 22.2776C22.1308 22.4259 21.9668 22.5 21.7871 22.5C21.6073 22.5 21.4433 22.4259 21.2951 22.2776L13.0845 14.067C12.3896 14.659 11.5905 15.1172 10.6872 15.4415C9.78382 15.7657 8.87585 15.9279 7.96325 15.9279M7.96325 14.5381C9.80698 14.5381 11.364 13.9035 12.6342 12.6342C13.9035 11.3649 14.5381 9.80791 14.5381 7.96325C14.5381 6.11859 13.904 4.56208 12.6356 3.2937C11.3672 2.02532 9.81069 1.39067 7.96603 1.38975C6.12137 1.38975 4.56439 2.0244 3.29509 3.2937C2.02579 4.563 1.39067 6.11952 1.38975 7.96325C1.38882 9.80698 2.02347 11.3635 3.2937 12.6328C4.56393 13.9021 6.12044 14.5368 7.96325 14.5368" fill="white"/>
</svg>
