<svg width="30" height="30" viewBox="0 0 30 30" fill="none" xmlns="http://www.w3.org/2000/svg">
<path d="M10.6195 21.2353C7.65719 21.2353 5.14639 20.2063 3.08709 18.1482C1.02903 16.0914 0 13.5812 0 10.6177C0 7.65411 1.02903 5.1433 3.08709 3.08524C5.14515 1.02718 7.65596 -0.00123422 10.6195 1.11158e-06C13.5831 0.00123644 16.0933 1.03027 18.1501 3.08709C20.2069 5.14392 21.2359 7.65411 21.2372 10.6177C21.2372 11.9049 21.0093 13.1507 20.5534 14.3552C20.0976 15.5596 19.4985 16.5899 18.756 17.446L29.7054 28.3916C29.8783 28.5645 29.971 28.7776 29.9833 29.0309C29.9944 29.2817 29.9018 29.5059 29.7054 29.7035C29.5077 29.9012 29.2891 30 29.0494 30C28.8098 30 28.5911 29.9012 28.3935 29.7035L17.446 18.756C16.5195 19.5454 15.454 20.1563 14.2495 20.5886C13.0451 21.021 11.8345 21.2372 10.6177 21.2372M10.6177 19.3842C13.076 19.3842 15.1519 18.538 16.8456 16.8456C18.538 15.1532 19.3842 13.0772 19.3842 10.6177C19.3842 8.15812 18.5386 6.08277 16.8474 4.3916C15.1563 2.70043 13.0809 1.85423 10.6214 1.853C8.16183 1.853 6.08586 2.6992 4.39345 4.3916C2.70105 6.084 1.85423 8.15936 1.853 10.6177C1.85176 13.076 2.69796 15.1513 4.3916 16.8437C6.08524 18.5361 8.16059 19.3823 10.6177 19.3823" fill="white"/>
</svg>
