<svg width="25" height="25" viewBox="0 0 25 25" fill="none" xmlns="http://www.w3.org/2000/svg">
<path d="M12.228 13.644L1.736 24.136C1.54933 24.3227 1.32 24.4227 1.048 24.436C0.775999 24.4493 0.533333 24.3493 0.32 24.136C0.106666 23.9227 0 23.6867 0 23.428C0 23.1693 0.106666 22.9333 0.32 22.72L10.812 12.228L0.32 1.736C0.133333 1.54933 0.0333328 1.32 0.0199995 1.048C0.00666617 0.775999 0.106666 0.533333 0.32 0.32C0.533333 0.106666 0.769333 0 1.028 0C1.28667 0 1.52267 0.106666 1.736 0.32L12.228 10.812L22.72 0.32C22.9067 0.133333 23.1367 0.0333328 23.41 0.0199995C23.6807 0.00666617 23.9227 0.106666 24.136 0.32C24.3493 0.533333 24.456 0.769333 24.456 1.028C24.456 1.28667 24.3493 1.52267 24.136 1.736L13.644 12.228L24.136 22.72C24.3227 22.9067 24.4227 23.1367 24.436 23.41C24.4493 23.6807 24.3493 23.9227 24.136 24.136C23.9227 24.3493 23.6867 24.456 23.428 24.456C23.1693 24.456 22.9333 24.3493 22.72 24.136L12.228 13.644Z" fill="white"/>
</svg>
